<svg data-logo="logo" xmlns="http://www.w3.org/2000/svg" viewBox="0 0 284 43">
        <g id="logogram" transform="translate(0, 1) rotate(0)"><path d="M37.5569 2.04585C38.4821 1.08338 39.7385 0.542663 41.0469 0.542664C46.9335 0.542664 52.4811 0.542667 57.9442 0.542678C68.932 0.542701 74.4342 14.3629 66.6646 22.4456L49.7407 40.0517C48.9637 40.86 47.6352 40.2875 47.6352 39.1444V23.6376L49.591 21.6029C51.145 19.9864 50.0444 17.2223 47.8468 17.2223H22.9684L37.5569 2.04585Z" fill="#3A04FF"></path><path d="M33.0467 38.8142C32.1215 39.7767 30.8651 40.3174 29.5567 40.3174C23.6701 40.3174 18.1225 40.3174 12.6594 40.3174C1.67159 40.3173 -3.83061 26.4972 3.93897 18.4144L20.8629 0.808361C21.6399 8.48472e-05 22.9684 0.57254 22.9684 1.71562L22.9684 17.2223L21.0126 19.2571C19.4586 20.8737 20.5592 23.6377 22.7568 23.6377L47.6352 23.6376L33.0467 38.8142Z" fill="#000000"></path></g>
        <g id="logotype" transform="translate(77, 9.5)"><path fill="#111111" d="M20.42 24L12.27 24L6.80-0.08L14.68-0.08L16.96 14.93L19.30 4.01L27.46 4.01L29.84 14.93L32.11-0.08L39.99-0.08L34.53 24L26.37 24L23.40 10.80L20.42 24ZM51.12 19.38L51.12 19.38Q52.13 19.38 53.27 19.17Q54.41 18.96 55.60 18.40L55.60 18.40L56.44 22.91Q55.14 23.58 53.62 23.93Q52.10 24.28 50.14 24.28L50.14 24.28Q46.60 24.28 44.20 23.13Q41.81 21.97 40.58 19.94Q39.36 17.91 39.36 15.25L39.36 15.25Q39.36 12.52 40.67 10.49Q41.98 8.46 44.19 7.34Q46.39 6.22 49.05 6.22L49.05 6.22Q53.01 6.22 55.11 8.69Q57.21 11.15 57.21 15.71L57.21 15.71L46.78 17.04Q47.93 19.38 51.12 19.38ZM46.22 13.81L46.22 13.81L51.71 12.66Q51.57 11.54 50.94 11.00Q50.31 10.45 49.37 10.45L49.37 10.45Q47.97 10.45 47.14 11.42Q46.32 12.38 46.22 13.81ZM72.22 24.28L72.22 24.28Q70.12 24.28 68.72 23.37Q67.32 22.46 66.48 20.75L66.48 20.75L66.48 24L59.13 24L59.13 0.93L66.55-0.15L66.55 10.07Q67.39 8.07 68.95 7.15Q70.51 6.22 72.22 6.22L72.22 6.22Q74.67 6.22 76.61 7.36Q78.56 8.49 79.69 10.49Q80.83 12.48 80.83 15.14L80.83 15.14Q80.83 17.80 79.69 19.87Q78.56 21.93 76.61 23.11Q74.67 24.28 72.22 24.28ZM69.95 18.75L69.95 18.75Q71.45 18.75 72.47 17.73Q73.48 16.72 73.48 15.25L73.48 15.25Q73.48 13.78 72.47 12.76Q71.45 11.75 69.95 11.75L69.95 11.75Q68.51 11.75 67.50 12.71Q66.48 13.67 66.48 15.18L66.48 15.18Q66.48 16.68 67.50 17.72Q68.51 18.75 69.95 18.75ZM98.65 24L82.90 24L82.90-0.08L90.46-0.08L90.46 18.47L99.00 18.47L98.65 24ZM108.52 24.28L108.52 24.28Q106.10 24.28 104.14 23.11Q102.18 21.93 101.04 19.87Q99.91 17.80 99.91 15.14L99.91 15.14Q99.91 12.48 101.04 10.49Q102.18 8.49 104.14 7.36Q106.10 6.22 108.52 6.22L108.52 6.22Q110.23 6.22 111.84 7.16Q113.45 8.11 114.33 10.28L114.33 10.28L114.33 6.46L121.61 6.46L121.61 24L114.26 24L114.26 20.75Q113.42 22.46 112.02 23.37Q110.62 24.28 108.52 24.28ZM110.79 18.75L110.79 18.75Q112.23 18.75 113.24 17.72Q114.26 16.68 114.26 15.18L114.26 15.18Q114.26 13.67 113.24 12.71Q112.23 11.75 110.79 11.75L110.79 11.75Q109.29 11.75 108.27 12.76Q107.26 13.78 107.26 15.25L107.26 15.25Q107.26 16.72 108.27 17.73Q109.29 18.75 110.79 18.75ZM133.86 24.28L133.86 24.28Q129.41 24.28 126.91 22.02Q124.41 19.77 124.41 15.77L124.41 15.77L124.41 6.46L131.62 6.46L131.62 16.09Q131.62 17.49 132.23 18.16Q132.84 18.82 133.89 18.82L133.89 18.82Q134.91 18.82 135.48 18.16Q136.06 17.49 136.06 16.09L136.06 16.09L136.06 6.46L143.13 6.46L143.13 15.77Q143.13 19.80 140.70 22.04Q138.27 24.28 133.86 24.28ZM153.31 24L145.93 24L145.93 6.46L153.21 6.46L153.21 10.28Q154.02 8.32 155.61 7.27Q157.20 6.22 159.41 6.22L159.41 6.22Q162.84 6.22 164.73 8.58Q166.62 10.94 166.62 15.25L166.62 15.25L166.62 24L159.23 24L159.23 14.86Q159.23 11.75 156.71 11.75L156.71 11.75Q155.21 11.75 154.26 12.85Q153.31 13.95 153.31 15.81L153.31 15.81L153.31 24ZM178.06 24.28L178.06 24.28Q175.12 24.28 172.98 23.13Q170.85 21.97 169.69 19.96Q168.54 17.95 168.54 15.32L168.54 15.32Q168.54 12.73 169.73 10.66Q170.92 8.60 173.07 7.41Q175.22 6.22 178.06 6.22L178.06 6.22Q181.45 6.22 183.41 7.62L183.41 7.62L182.64 12.38Q181.77 11.99 181 11.84Q180.23 11.68 179.53 11.68L179.53 11.68Q177.81 11.68 176.82 12.64Q175.82 13.60 175.82 15.25L175.82 15.25Q175.82 16.86 176.80 17.86Q177.78 18.86 179.39 18.86L179.39 18.86Q180.79 18.86 182.68 18.26L182.68 18.26L183.34 23.16Q182.19 23.72 180.95 24Q179.70 24.28 178.06 24.28ZM192.90 24L185.51 24L185.51 0.93L192.90-0.15L192.90 10.07Q193.63 8.25 195.21 7.23Q196.78 6.22 198.99 6.22L198.99 6.22Q202.42 6.22 204.31 8.58Q206.20 10.94 206.20 15.25L206.20 15.25L206.20 24L198.81 24L198.81 14.86Q198.81 11.75 196.29 11.75L196.29 11.75Q194.79 11.75 193.84 12.85Q192.90 13.95 192.90 15.81L192.90 15.81L192.90 24Z"></path></g>
        
      </svg>